<mxfile host="www.draw.io" modified="2020-03-30T06:08:20.180Z" agent="Mozilla/5.0 (Macintosh; Intel Mac OS X 10_15_3) AppleWebKit/537.36 (KHTML, like Gecko) Chrome/80.0.3987.149 Safari/537.36" etag="8vxJe5qtEpvspn163MiZ" version="12.8.8" type="github">
  <diagram name="Page-1" id="8378b5f6-a2b2-b727-a746-972ab9d02e00">
    <mxGraphModel dx="1140" dy="741" grid="1" gridSize="10" guides="1" tooltips="1" connect="0" arrows="1" fold="1" page="1" pageScale="1.5" pageWidth="1169" pageHeight="827" background="#ffffff" math="0" shadow="0">
      <root>
        <mxCell id="0" />
        <mxCell id="1" parent="0" />
        <mxCell id="68" value="" style="strokeColor=#DEEDFF" parent="1" vertex="1">
          <mxGeometry x="686.500000000002" y="380.0000000000002" width="20" height="520" as="geometry" />
        </mxCell>
        <mxCell id="UakS1ffLyw6GJzvokB-H-278" value="1" style="strokeColor=#DEEDFF;fillColor=#ADC3D9" vertex="1" parent="1">
          <mxGeometry x="20" y="120" width="40" height="20" as="geometry" />
        </mxCell>
        <mxCell id="UakS1ffLyw6GJzvokB-H-279" value="Complete project execution" style="align=left;strokeColor=#DEEDFF;fillColor=#ADC3D9" vertex="1" parent="1">
          <mxGeometry x="60" y="120" width="320" height="20" as="geometry" />
        </mxCell>
        <mxCell id="UakS1ffLyw6GJzvokB-H-280" value="35 days" style="strokeColor=#DEEDFF;fillColor=#ADC3D9" vertex="1" parent="1">
          <mxGeometry x="380.00000000000176" y="120" width="80.00000000000028" height="20" as="geometry" />
        </mxCell>
        <mxCell id="UakS1ffLyw6GJzvokB-H-281" value="16.04.12" style="strokeColor=#DEEDFF;fillColor=#ADC3D9" vertex="1" parent="1">
          <mxGeometry x="460.00000000000205" y="120" width="80.00000000000028" height="20" as="geometry" />
        </mxCell>
        <mxCell id="UakS1ffLyw6GJzvokB-H-282" value="1.06.12" style="strokeColor=#DEEDFF;fillColor=#ADC3D9" vertex="1" parent="1">
          <mxGeometry x="540.0000000000016" y="120.00000000000023" width="80.00000000000028" height="20" as="geometry" />
        </mxCell>
        <mxCell id="UakS1ffLyw6GJzvokB-H-283" value="2" style="strokeColor=#DEEDFF;fillColor=#CCE5FF" vertex="1" parent="1">
          <mxGeometry x="20.000000000000256" y="139.9999999999999" width="40" height="20" as="geometry" />
        </mxCell>
        <mxCell id="UakS1ffLyw6GJzvokB-H-284" value="Engineering" style="align=left;strokeColor=#DEEDFF;fillColor=#CCE5FF" vertex="1" parent="1">
          <mxGeometry x="60.000000000000256" y="139.9999999999999" width="319.9999999999998" height="20" as="geometry" />
        </mxCell>
        <mxCell id="UakS1ffLyw6GJzvokB-H-285" value="35 days" style="strokeColor=#DEEDFF;fillColor=#CCE5FF" vertex="1" parent="1">
          <mxGeometry x="380.000000000002" y="139.99999999999983" width="80.00000000000028" height="20" as="geometry" />
        </mxCell>
        <mxCell id="UakS1ffLyw6GJzvokB-H-286" value="16.04.12" style="strokeColor=#DEEDFF;fillColor=#CCE5FF" vertex="1" parent="1">
          <mxGeometry x="460.0000000000023" y="139.99999999999983" width="80.00000000000028" height="20" as="geometry" />
        </mxCell>
        <mxCell id="UakS1ffLyw6GJzvokB-H-287" value="1.06.12" style="strokeColor=#DEEDFF;fillColor=#CCE5FF" vertex="1" parent="1">
          <mxGeometry x="540.0000000000018" y="140.0000000000001" width="80.00000000000028" height="20" as="geometry" />
        </mxCell>
        <mxCell id="UakS1ffLyw6GJzvokB-H-288" value="3" style="strokeColor=#DEEDFF" vertex="1" parent="1">
          <mxGeometry x="20.00000000000027" y="159.99999999999977" width="40" height="20" as="geometry" />
        </mxCell>
        <mxCell id="UakS1ffLyw6GJzvokB-H-289" value="Project examination" style="align=left;strokeColor=#DEEDFF" vertex="1" parent="1">
          <mxGeometry x="60.00000000000027" y="159.99999999999977" width="319.9999999999997" height="20.000000000000014" as="geometry" />
        </mxCell>
        <mxCell id="UakS1ffLyw6GJzvokB-H-290" value="1 day" style="strokeColor=#DEEDFF" vertex="1" parent="1">
          <mxGeometry x="380.000000000002" y="159.99999999999972" width="80.00000000000028" height="20" as="geometry" />
        </mxCell>
        <mxCell id="UakS1ffLyw6GJzvokB-H-291" value="16.04.12" style="strokeColor=#DEEDFF" vertex="1" parent="1">
          <mxGeometry x="460.0000000000023" y="159.99999999999972" width="80.00000000000028" height="20" as="geometry" />
        </mxCell>
        <mxCell id="UakS1ffLyw6GJzvokB-H-292" value="16.04.12" style="strokeColor=#DEEDFF" vertex="1" parent="1">
          <mxGeometry x="540.0000000000018" y="160" width="80.00000000000028" height="20" as="geometry" />
        </mxCell>
        <mxCell id="UakS1ffLyw6GJzvokB-H-293" value="4" style="strokeColor=#DEEDFF" vertex="1" parent="1">
          <mxGeometry x="20" y="180.00000000000017" width="40" height="20" as="geometry" />
        </mxCell>
        <mxCell id="UakS1ffLyw6GJzvokB-H-294" value="Material specification" style="align=left;strokeColor=#DEEDFF" vertex="1" parent="1">
          <mxGeometry x="60" y="180.00000000000017" width="320" height="20" as="geometry" />
        </mxCell>
        <mxCell id="UakS1ffLyw6GJzvokB-H-295" value="2 days" style="strokeColor=#DEEDFF" vertex="1" parent="1">
          <mxGeometry x="380.0000000000017" y="180.0000000000001" width="80.00000000000028" height="20" as="geometry" />
        </mxCell>
        <mxCell id="UakS1ffLyw6GJzvokB-H-296" value="17.04.12" style="strokeColor=#DEEDFF" vertex="1" parent="1">
          <mxGeometry x="460.00000000000205" y="180.0000000000001" width="80.00000000000028" height="20" as="geometry" />
        </mxCell>
        <mxCell id="UakS1ffLyw6GJzvokB-H-297" value="18.04.12" style="strokeColor=#DEEDFF" vertex="1" parent="1">
          <mxGeometry x="540.0000000000015" y="180.0000000000004" width="80.00000000000028" height="20" as="geometry" />
        </mxCell>
        <mxCell id="UakS1ffLyw6GJzvokB-H-298" value="5" style="strokeColor=#DEEDFF" vertex="1" parent="1">
          <mxGeometry x="19.999999999999915" y="200.00000000000017" width="40" height="20" as="geometry" />
        </mxCell>
        <mxCell id="UakS1ffLyw6GJzvokB-H-299" value="Material ordering" style="align=left;strokeColor=#DEEDFF" vertex="1" parent="1">
          <mxGeometry x="59.999999999999915" y="200.00000000000017" width="320.0000000000001" height="20" as="geometry" />
        </mxCell>
        <mxCell id="UakS1ffLyw6GJzvokB-H-300" value="1 day" style="strokeColor=#DEEDFF" vertex="1" parent="1">
          <mxGeometry x="380.00000000000165" y="200.0000000000001" width="80.00000000000028" height="20" as="geometry" />
        </mxCell>
        <mxCell id="UakS1ffLyw6GJzvokB-H-301" value="19.04.12" style="strokeColor=#DEEDFF" vertex="1" parent="1">
          <mxGeometry x="460.00000000000193" y="200.0000000000001" width="80.00000000000028" height="20" as="geometry" />
        </mxCell>
        <mxCell id="UakS1ffLyw6GJzvokB-H-302" value="19.04.12" style="strokeColor=#DEEDFF" vertex="1" parent="1">
          <mxGeometry x="540.0000000000015" y="200.0000000000004" width="80.00000000000028" height="20" as="geometry" />
        </mxCell>
        <mxCell id="UakS1ffLyw6GJzvokB-H-303" value="6" style="strokeColor=#DEEDFF" vertex="1" parent="1">
          <mxGeometry x="19.9999999999999" y="220.00000000000045" width="40" height="20" as="geometry" />
        </mxCell>
        <mxCell id="UakS1ffLyw6GJzvokB-H-304" value="Equipment layouting" style="align=left;strokeColor=#DEEDFF" vertex="1" parent="1">
          <mxGeometry x="59.9999999999999" y="220.00000000000045" width="320.0000000000001" height="20" as="geometry" />
        </mxCell>
        <mxCell id="UakS1ffLyw6GJzvokB-H-305" value="3 days" style="strokeColor=#DEEDFF" vertex="1" parent="1">
          <mxGeometry x="380.00000000000165" y="220.00000000000034" width="80.00000000000028" height="20" as="geometry" />
        </mxCell>
        <mxCell id="UakS1ffLyw6GJzvokB-H-306" value="20.04.12" style="strokeColor=#DEEDFF" vertex="1" parent="1">
          <mxGeometry x="460.00000000000193" y="220.00000000000034" width="80.00000000000028" height="20" as="geometry" />
        </mxCell>
        <mxCell id="UakS1ffLyw6GJzvokB-H-307" value="24.04.12" style="strokeColor=#DEEDFF" vertex="1" parent="1">
          <mxGeometry x="540.0000000000015" y="220.00000000000068" width="80.00000000000028" height="20" as="geometry" />
        </mxCell>
        <mxCell id="UakS1ffLyw6GJzvokB-H-308" value="7" style="strokeColor=#DEEDFF" vertex="1" parent="1">
          <mxGeometry x="20.000000000000625" y="240.00000000000068" width="40" height="20" as="geometry" />
        </mxCell>
        <mxCell id="UakS1ffLyw6GJzvokB-H-309" value="Supervision and meetings" style="align=left;strokeColor=#DEEDFF" vertex="1" parent="1">
          <mxGeometry x="60.000000000000625" y="240.00000000000068" width="319.9999999999994" height="20" as="geometry" />
        </mxCell>
        <mxCell id="UakS1ffLyw6GJzvokB-H-310" value="27 days" style="strokeColor=#DEEDFF" vertex="1" parent="1">
          <mxGeometry x="380.0000000000024" y="240.00000000000068" width="80.00000000000028" height="20" as="geometry" />
        </mxCell>
        <mxCell id="UakS1ffLyw6GJzvokB-H-311" value="25.04.12" style="strokeColor=#DEEDFF" vertex="1" parent="1">
          <mxGeometry x="460.00000000000273" y="240.00000000000068" width="80.00000000000028" height="20" as="geometry" />
        </mxCell>
        <mxCell id="UakS1ffLyw6GJzvokB-H-312" value="31.05.12" style="strokeColor=#DEEDFF" vertex="1" parent="1">
          <mxGeometry x="540.0000000000022" y="240.0000000000009" width="80.00000000000028" height="20" as="geometry" />
        </mxCell>
        <mxCell id="UakS1ffLyw6GJzvokB-H-313" value="8" style="strokeColor=#DEEDFF" vertex="1" parent="1">
          <mxGeometry x="20.00000000000064" y="260.00000000000057" width="40" height="20" as="geometry" />
        </mxCell>
        <mxCell id="UakS1ffLyw6GJzvokB-H-314" value="Bill of works" style="align=left;strokeColor=#DEEDFF" vertex="1" parent="1">
          <mxGeometry x="60.00000000000064" y="260.00000000000057" width="319.9999999999994" height="20" as="geometry" />
        </mxCell>
        <mxCell id="UakS1ffLyw6GJzvokB-H-315" value="1 day" style="strokeColor=#DEEDFF" vertex="1" parent="1">
          <mxGeometry x="380.0000000000024" y="260.00000000000057" width="80.00000000000028" height="20" as="geometry" />
        </mxCell>
        <mxCell id="UakS1ffLyw6GJzvokB-H-316" value="1.06.12" style="strokeColor=#DEEDFF" vertex="1" parent="1">
          <mxGeometry x="460.00000000000273" y="260.00000000000057" width="80.00000000000028" height="20" as="geometry" />
        </mxCell>
        <mxCell id="UakS1ffLyw6GJzvokB-H-317" value="1.06.12" style="strokeColor=#DEEDFF" vertex="1" parent="1">
          <mxGeometry x="540.0000000000022" y="260.0000000000008" width="80.00000000000028" height="20" as="geometry" />
        </mxCell>
        <mxCell id="UakS1ffLyw6GJzvokB-H-318" value="9" style="strokeColor=#DEEDFF;fillColor=#CCE5FF" vertex="1" parent="1">
          <mxGeometry x="20.00000000000037" y="280.000000000001" width="40" height="20" as="geometry" />
        </mxCell>
        <mxCell id="UakS1ffLyw6GJzvokB-H-319" value="Workshop" style="align=left;strokeColor=#DEEDFF;fillColor=#CCE5FF" vertex="1" parent="1">
          <mxGeometry x="60.00000000000037" y="280.000000000001" width="319.99999999999966" height="20.00000000000003" as="geometry" />
        </mxCell>
        <mxCell id="UakS1ffLyw6GJzvokB-H-320" value="20 days" style="strokeColor=#DEEDFF;fillColor=#CCE5FF" vertex="1" parent="1">
          <mxGeometry x="380.0000000000021" y="280.0000000000009" width="80.00000000000028" height="20" as="geometry" />
        </mxCell>
        <mxCell id="UakS1ffLyw6GJzvokB-H-321" value="24.04.12" style="strokeColor=#DEEDFF;fillColor=#CCE5FF" vertex="1" parent="1">
          <mxGeometry x="460.0000000000025" y="280.0000000000009" width="80.00000000000028" height="20" as="geometry" />
        </mxCell>
        <mxCell id="UakS1ffLyw6GJzvokB-H-322" value="21.05.12" style="strokeColor=#DEEDFF;fillColor=#CCE5FF" vertex="1" parent="1">
          <mxGeometry x="540.0000000000018" y="280.00000000000125" width="80.00000000000028" height="20" as="geometry" />
        </mxCell>
        <mxCell id="UakS1ffLyw6GJzvokB-H-323" value="10" style="strokeColor=#DEEDFF" vertex="1" parent="1">
          <mxGeometry x="20.000000000000284" y="300.000000000001" width="40" height="20" as="geometry" />
        </mxCell>
        <mxCell id="UakS1ffLyw6GJzvokB-H-324" value="Project examination and material comparison" style="align=left;strokeColor=#DEEDFF" vertex="1" parent="1">
          <mxGeometry x="60.000000000000284" y="300.000000000001" width="319.9999999999997" height="20" as="geometry" />
        </mxCell>
        <mxCell id="UakS1ffLyw6GJzvokB-H-325" value="2 days" style="strokeColor=#DEEDFF" vertex="1" parent="1">
          <mxGeometry x="380.00000000000205" y="300.0000000000009" width="80.00000000000028" height="20" as="geometry" />
        </mxCell>
        <mxCell id="UakS1ffLyw6GJzvokB-H-326" value="24.04.12" style="strokeColor=#DEEDFF" vertex="1" parent="1">
          <mxGeometry x="460.0000000000023" y="300.0000000000009" width="80.00000000000028" height="20" as="geometry" />
        </mxCell>
        <mxCell id="UakS1ffLyw6GJzvokB-H-327" value="25.04.12" style="strokeColor=#DEEDFF" vertex="1" parent="1">
          <mxGeometry x="540.0000000000018" y="300.00000000000125" width="80.00000000000028" height="20" as="geometry" />
        </mxCell>
        <mxCell id="UakS1ffLyw6GJzvokB-H-328" value="RoomGUID" style="fillColor=#23445D;strokeColor=#FFFFFF;strokeWidth=2;fontColor=#FFFFFF;fontStyle=1" vertex="1" parent="1">
          <mxGeometry x="60" y="80" width="320" height="40" as="geometry" />
        </mxCell>
        <mxCell id="UakS1ffLyw6GJzvokB-H-329" value="" style="fillColor=#23445D;strokeColor=#FFFFFF;strokeWidth=2;fontColor=#FFFFFF;fontStyle=1" vertex="1" parent="1">
          <mxGeometry x="20" y="80" width="40" height="40" as="geometry" />
        </mxCell>
        <mxCell id="UakS1ffLyw6GJzvokB-H-330" value="Duration" style="fillColor=#23445D;strokeColor=#FFFFFF;strokeWidth=2;fontColor=#FFFFFF;fontStyle=1" vertex="1" parent="1">
          <mxGeometry x="380.00000000000176" y="80.00000000000006" width="80.00000000000006" height="40.00000000000001" as="geometry" />
        </mxCell>
        <mxCell id="UakS1ffLyw6GJzvokB-H-331" value="Start" style="fillColor=#23445D;strokeColor=#FFFFFF;strokeWidth=2;fontColor=#FFFFFF;fontStyle=1" vertex="1" parent="1">
          <mxGeometry x="460.0000000000018" y="80.00000000000006" width="80.00000000000006" height="40.00000000000001" as="geometry" />
        </mxCell>
        <mxCell id="UakS1ffLyw6GJzvokB-H-332" value="ETA" style="fillColor=#23445D;strokeColor=#FFFFFF;strokeWidth=2;fontColor=#FFFFFF;fontStyle=1" vertex="1" parent="1">
          <mxGeometry x="540.0000000000019" y="80.00000000000011" width="80.00000000000006" height="40.00000000000001" as="geometry" />
        </mxCell>
      </root>
    </mxGraphModel>
  </diagram>
</mxfile>
